<?xml version="1.0" encoding="UTF-8"?>
<!DOCTYPE svg PUBLIC "-//W3C//DTD SVG 1.1//EN" "http://www.w3.org/Graphics/SVG/1.1/DTD/svg11.dtd">
<!-- Creator: CorelDRAW -->
<svg xmlns="http://www.w3.org/2000/svg" xml:space="preserve" width="39.2803mm" height="12.1925mm" version="1.1" style="shape-rendering:geometricPrecision; text-rendering:geometricPrecision; image-rendering:optimizeQuality; fill-rule:evenodd; clip-rule:evenodd"
viewBox="0 0 80.79 25.08"
 xmlns:xlink="http://www.w3.org/1999/xlink"
 xmlns:xodm="http://www.corel.com/coreldraw/odm/2003">
 <defs>
  <style type="text/css">
   <![CDATA[
    .fil0 {fill:black}
   ]]>
  </style>
 </defs>
 <g id="Слой_x0020_1">
  <metadata id="CorelCorpID_0Corel-Layer"/>
  <g id="_105553482400448">
   <path class="fil0" d="M26.25 18.94l10.51 6.14 10.58 -6.09 -10.58 -6.16 -10.51 6.11zm10.81 -18.94l10.65 6.22 0 12.28 -10.62 -6.16 -0.03 -12.34zm-0.53 0l-10.65 6.22 0 12.28 10.62 -6.16 0.03 -12.34z"/>
   <path class="fil0" d="M60.22 1.45l7.96 0c4.42,0 6.98,1.68 8.34,4.18 1.25,2.31 1.37,5.82 1.35,9.05 -0.01,1.48 -0.01,2.9 -0,4.12l-4.1 0c0.01,-1.41 -0.01,-2.71 -0.01,-4.12 0.01,-2.69 -0.07,-5.56 -1.14,-7.18 -0.81,-1.22 -2.09,-2.09 -4.07,-2.34 -1.38,-0.18 -2.85,-0.15 -4.12,-0.15l0 14.47 16.37 0 0 4.14 -23.75 0 0 -4.14 3.18 0 0 -18.03z"/>
   <g>
    <path class="fil0" d="M4.02 10.08c0.27,0.01 0.55,0.02 0.82,0.04 0.86,0.06 1.71,0.16 2.55,0.33 3.07,0.62 5.67,2.07 7.48,4.69 1.55,2.25 2.36,5.03 2.8,7.7l0.11 0.68 -4.33 0 -0.08 -0.49c-0.25,-1.47 -0.62,-2.96 -1.21,-4.33 -0.46,-1.07 -1.08,-2.07 -1.93,-2.88 -0.8,-0.76 -1.76,-1.28 -2.81,-1.6 -1.09,-0.33 -2.26,-0.46 -3.4,-0.46l0 9.76 -4.02 0 0 -21.97 4.02 0 0 8.53z"/>
    <path class="fil0" d="M6.33 9.65l7.03 -8.1 4.62 0 -7.6 9.19c-0.61,-0.27 -1.24,-0.5 -1.86,-0.67 -0.72,-0.2 -1.46,-0.33 -2.2,-0.41z"/>
   </g>
  </g>
 </g>
</svg>
